<svg width="256" height="256" viewBox="0 0 256 256" fill="none" xmlns="http://www.w3.org/2000/svg">
<g clip-path="url(#clip0_63_2)">
<g clip-path="url(#clip1_63_2)">
<path d="M66.5078 2.91589L80.2149 30.7982" stroke="#FFCC00" stroke-width="3.01176"/>
<path d="M189.492 2.91589L175.785 30.7982" stroke="#FFCC00" stroke-width="3.01176"/>
<path d="M66.5078 253.084L80.2149 225.202" stroke="#FFCC00" stroke-width="3.01176"/>
<path d="M189.492 253.084L175.785 225.202" stroke="#FFCC00" stroke-width="3.01176"/>
<path d="M66.5078 77.9195H73.6384V53.7176H73.9199L84.1654 73.0122H89.2506L100.209 53.7176H100.472V77.9195H107.846V40.0924H100.378L87.1678 64.2571H86.9613L73.8636 40.0924H66.5078V77.9195ZM134.849 40.0924H125.523L111.825 77.9195H119.781L122.183 70.8931H138.771L141.323 77.9195H149.842L134.849 40.0924ZM124.097 65.2237L129.933 47.9366H130.477L136.744 65.2237H124.097ZM161.176 40.0924H153.82V77.9195H161.176V67.2684L166.805 61.599L179.847 77.9195H189.492L171.984 56.6359L188.666 40.0924H179.021L161.176 58.5319V40.0924Z" fill="#FFCC00"/>
<path d="M98.5983 83.496H70.9065L114.252 147.056V147.426L66.5078 215.908H95.5353L127.822 166.725H128.587L161.426 215.908H189.492L143.279 148.749V148.379L185.307 83.496H157.989L129.923 128.886H129.157L98.5983 83.496Z" fill="#FFCC00"/>
</g>
</g>
<defs>
<clipPath id="clip0_63_2">
<rect width="256" height="256" fill="white"/>
</clipPath>
<clipPath id="clip1_63_2">
<rect width="638" height="474" fill="white" transform="translate(-191 -109)"/>
</clipPath>
</defs>
</svg>
